<?xml version="1.0" encoding="utf-8"?>
<!-- Generator: Adobe Illustrator 27.0.0, SVG Export Plug-In . SVG Version: 6.00 Build 0)  -->
<svg version="1.1" id="Layer_1" xmlns="http://www.w3.org/2000/svg" xmlns:xlink="http://www.w3.org/1999/xlink" x="0px" y="0px"
	 viewBox="0 0 512 512" style="enable-background:new 0 0 512 512;" xml:space="preserve">
<style type="text/css">
	.st0{fill:#47143D;}
	.st1{fill:#FFFFFF;}
	.st2{fill:#B99750;}
</style>
<g id="XMLID_1_">
	<path id="path2466" class="st0" d="M0,46.69h512v418.52H0V46.69z"/>
	<path id="path2464" class="st1" d="M231.57,342.92c-0.15,0-2.05,0.59-4.1,1.32c-2.78,0.88-3.95,1.32-4.39,1.76l-0.59,0.59v21.21
		V389l0.44,1.61c1.46,5.71,4.83,9.36,10.39,11.41c3.8,1.32,8.48,1.9,13.31,1.46c2.78-0.29,4.97-0.59,7.75-1.32
		c2.63-0.73,3.22-0.88,3.51-1.46c0.15-0.44-0.88-3.8-1.32-4.39c-0.44-0.44-0.73-0.44-3.22,0.44c-3.51,1.17-5.71,1.61-8.78,1.61
		c-2.19,0-3.07-0.15-4.24-0.44c-3.07-0.88-5.12-2.34-6.29-4.53c-1.02-2.19-1.17-2.19-1.17-17.99v-14.34h10.97h10.97l0.59-0.59
		c0.59-0.59,0.59-0.59,0.59-2.19c0-1.46,0-1.61-0.44-2.05l-0.44-0.59h-10.97h-11.12v-5.85v-5.85l-0.44-0.44
		C232.01,343.06,231.72,342.92,231.57,342.92L231.57,342.92z M184.61,353.16c-4.24,0-8.19,0.44-11.7,1.32
		c-6.73,1.76-11.41,5.41-13.02,10.09c-0.44,1.17-0.44,1.9-0.44,3.51c0,2.19,0.29,3.51,1.02,5.12c1.76,3.8,5.85,6.29,12.43,7.75
		c2.49,0.59,4.39,0.73,11.41,1.17c7.61,0.44,10.24,0.88,12.73,2.05c2.34,1.02,3.22,2.49,3.36,5.12c0.15,2.34-0.29,3.36-2.19,5.27
		c-1.17,1.17-1.76,1.61-3.22,2.34c-7.9,3.95-20.77,2.49-32.18-3.66c-1.9-1.02-2.05-1.02-2.49-0.73c-0.59,0.29-2.05,2.93-2.19,3.8
		c-0.15,0.73,0.29,1.17,1.76,2.05c4.53,2.34,10.39,4.1,15.95,4.83c3.8,0.59,3.66,0.59,9.51,0.44c4.39,0,5.85-0.15,7.9-0.44
		c8.34-1.32,13.9-3.95,16.68-8.19c1.32-2.05,1.76-3.22,1.9-6.14c0-1.76,0-2.63-0.29-3.51c-1.17-4.53-4.68-7.9-10.39-9.65
		c-3.22-1.02-7.31-1.61-16.38-2.19c-5.56-0.29-7.46-0.59-9.22-1.02c-2.63-0.73-4.1-1.76-4.97-3.22c-0.59-1.02-0.59-3.66,0-5.27
		c0.59-1.61,2.05-3.07,3.95-4.1c2.78-1.46,5.71-1.9,10.53-1.9c6.88,0,13.31,1.46,19.16,4.24c1.32,0.73,2.63,1.17,2.78,1.17
		c0.44,0,1.02-0.59,1.9-2.19c0.88-1.46,0.88-2.05,0.29-2.63c-0.59-0.59-4.24-2.05-6.88-2.93
		C197.05,354.03,190.76,353.16,184.61,353.16L184.61,353.16z M292.57,353.89c-2.34,0-4.68,0.15-5.85,0.29
		c-4.24,0.59-8.78,1.61-12.43,3.07c-2.19,0.88-6.29,2.78-6.73,3.22c-0.59,0.59-0.44,1.46,0.88,4.24c0.44,1.02,0.73,1.02,4.97-1.02
		c9.22-4.53,17.26-5.85,24.72-4.1c5.41,1.32,8.92,4.1,10.39,8.34c0.29,1.02,0.59,7.75,0.29,8.05c-0.15,0.15-0.88,0-2.19-0.29
		c-9.51-2.19-18.72-2.78-26.62-1.46c-10.68,1.76-16.38,6.88-16.38,14.63c0,3.95,1.17,6.73,3.66,9.22c2.93,2.93,6.73,4.39,12.87,5.27
		c2.63,0.29,10.39,0.29,13.02-0.15c5.41-0.88,10.68-2.78,14.19-5.12c0.59-0.44,1.17-0.73,1.32-0.73c0.15,0,0.15,0.73,0.15,1.9
		c0,3.36,0.15,3.36,5.27,3.36c4.39,0,4.83-0.15,5.12-1.32c0.15-0.44,0.15-4.97,0.15-15.36c-0.15-14.04-0.15-14.77-0.44-16.24
		c-0.73-3.22-1.9-5.56-3.8-7.9c-3.22-3.95-8.92-6.58-16.82-7.61C297.25,353.89,294.91,353.89,292.57,353.89L292.57,353.89z
		 M422.03,353.89c-2.34,0-4.83,0.15-6.29,0.29c-5.85,0.73-11.56,2.63-17.26,5.41c-1.9,1.02-2.05,1.32-1.02,3.66
		c0.73,1.76,1.02,2.19,1.61,2.19c0.15,0,1.61-0.59,3.07-1.46c8.78-4.53,16.68-6.14,24.28-4.83c5.85,1.02,9.8,3.8,11.41,8.05
		c0.44,1.17,0.44,1.61,0.59,5.12l0.15,3.8l-0.59-0.15c-0.29,0-1.46-0.29-2.63-0.59c-2.63-0.59-6.73-1.32-9.51-1.61
		c-3.07-0.29-10.83-0.29-13.9,0.15c-10.68,1.32-16.97,5.56-18.43,12.14c-0.44,2.05-0.29,4.97,0.44,7.17
		c0.59,1.76,1.9,3.95,3.22,5.12c2.78,2.63,7.31,4.39,12.58,4.97c2.78,0.29,8.63,0.29,11.41,0c6.29-0.73,11.7-2.49,15.65-5.27
		c0.73-0.44,1.32-0.88,1.46-0.88c0.15,0,0.15,0.73,0.15,1.76s0.15,2.05,0.15,2.34c0.29,1.02,0.88,1.17,5.12,1.17
		c2.05,0,4.1-0.15,4.24-0.15c1.02-0.44,1.02,0,1.02-15.36c0-8.92-0.15-14.63-0.15-15.51c-0.88-6.88-4.53-11.85-10.53-14.63
		c-2.78-1.17-6.58-2.19-10.24-2.78C426.72,353.89,424.37,353.89,422.03,353.89L422.03,353.89z M332.51,354.91l-0.59,0.59l-0.59,0.59
		v22.53c0,24.28,0,23.11,0.88,23.7c0.59,0.29,7.9,0.44,8.63,0c1.02-0.44,1.02-0.59,1.02-8.48v-7.31h11.41l7.17,5.85
		c11.26,9.22,11.41,9.36,12.29,9.65c0.88,0.44,1.02,0.44,6.58,0.44s5.71,0,6.14-0.29c0.44-0.44,0.44-1.02,0.15-1.61
		c-0.15-0.29-4.39-3.51-9.51-7.31c-4.97-3.8-9.22-7.02-9.22-7.02c0-0.15,0.44-0.15,1.32-0.29c7.02-0.73,12.87-4.1,15.21-9.22
		c1.02-2.05,1.32-3.36,1.46-5.85c0.15-4.24-1.02-7.61-3.66-10.53c-1.9-1.9-5.12-3.8-8.63-4.83l-1.76-0.44L332.51,354.91
		L332.51,354.91z M63.34,354.91l-0.29,0.44c-0.29,0.44,0,1.02,0,1.02c0.15,0.29,26.04,45.35,26.48,45.64
		c0.59,0.44,0.73,0.44,5.71,0.44h5.12l0.44-0.44c0.73-0.73,26.33-45.49,26.33-45.93c0-0.29-0.15-0.59-0.29-0.73
		c-0.29-0.29-0.59-0.29-3.22-0.29h-2.93l-0.59,0.59c-0.29,0.29-22.67,39.79-22.97,39.64c0,0-22.38-39.79-22.53-39.94L63.34,354.91
		L63.34,354.91z M137.07,354.91l-0.44,0.44l-0.44,0.44v45.64l0.59,0.59l0.59,0.59h8.63l0.59-0.59l0.59-0.59v-45.49l-0.44-0.44
		l-0.44-0.44h-9.22V354.91z M342.16,359.89h11.56c10.53,0,11.7,0,12.73,0.29c3.51,1.02,6,3.8,6.88,7.61
		c0.44,1.9,0.29,4.68-0.44,6.73c-1.17,3.51-3.36,5.71-7.17,6.58c-1.32,0.29-2.19,0.29-12.58,0.29h-11.12L342.16,359.89
		L342.16,359.89z M290.96,378.32c2.78,0,6,0.15,9.51,0.73c2.93,0.44,7.9,1.46,8.05,1.61c0.15,0.15,0.15,2.78,0.15,5.85v5.71
		l-1.17,0.88c-2.63,1.76-6.29,3.36-9.07,4.24c-3.36,1.02-5.41,1.32-9.65,1.32c-2.19,0-4.1,0-4.39,0c-6-1.02-8.92-3.66-9.51-8.63
		c-0.44-3.07,0.44-5.56,2.49-7.46C280.14,379.78,284.67,378.46,290.96,378.32L290.96,378.32z M421.16,378.32
		c3.95,0,8.48,0.44,13.46,1.46c1.61,0.29,3.07,0.59,3.36,0.73l0.44,0.15v5.71v5.71l-1.32,0.88c-1.46,1.02-4.83,2.63-6.73,3.36
		c-2.05,0.73-5.27,1.61-7.61,1.9c-2.34,0.29-7.61,0.29-9.22,0.15c-2.78-0.44-5.56-1.76-6.88-3.36c-2.49-2.93-2.93-8.19-0.88-11.26
		C408.28,380.22,413.7,378.32,421.16,378.32L421.16,378.32z"/>
	<path id="path2444" class="st2" d="M256,110.03l-0.73,0.59c-3.07,2.19-10.53,9.22-14.77,13.9c-4.24,4.83-8.34,10.09-11.85,15.07
		c-0.88,1.32-1.76,2.63-1.9,2.63c-0.15,0-1.76-0.15-3.51-0.44c-11.12-2.19-23.41-2.93-33.5-2.34c-5.27,0.29-7.31,0.59-7.61,1.17
		c-0.29,0.59-0.73,5.41-0.88,9.95c-0.29,9.51,0.29,19.46,2.19,29.4c0.44,2.05,0.73,3.95,0.73,4.39c0.15,0.59,0.15,0.73-2.05,2.19
		c-8.78,6-17.55,13.46-24.43,20.92c-2.05,2.34-5.12,5.85-5.41,6.58c-0.15,0.29,0,0.59,0.88,1.9c6.29,8.34,18.14,19.02,28.67,26.04
		c1.32,0.88,2.34,1.61,2.49,1.76c0,0.15-0.15,1.61-0.59,3.51c-1.9,9.95-2.63,18.58-2.49,28.82c0.15,5.41,0.44,10.83,0.73,12
		c0.15,0.29,0.59,0.29,1.76,0.59c10.83,1.46,26.48,0.73,39.35-1.9c1.61-0.29,3.07-0.59,3.22-0.59c0.44,0,0.73,0.44,2.05,2.34
		c3.07,4.53,7.9,10.83,11.85,15.21c4.97,5.71,14.77,14.63,15.8,14.63c0.15,0,1.02-0.59,1.9-1.32c2.63-2.05,5.56-4.68,9.22-8.48
		c6.29-6.44,11.7-13.02,16.68-20.33c0.73-1.17,1.46-2.05,1.61-2.19c0.15,0,1.61,0.15,3.22,0.44c10.24,2.05,21.8,2.93,31.45,2.49
		c5.71-0.29,9.22-0.59,9.51-1.02c0.59-0.73,1.02-7.61,1.02-14.04c0-9.36-0.88-17.99-2.49-26.62c-0.29-1.76-0.59-3.36-0.59-3.51
		c0-0.15,1.02-0.88,2.05-1.46c6.88-4.53,14.04-10.39,20.33-16.68c4.97-4.97,9.95-10.53,9.95-11.26c0-0.59-4.24-5.56-8.34-9.65
		c-6.14-6.29-14.19-12.87-21.5-17.85c-1.9-1.32-2.49-1.76-2.49-2.05c0-0.15,0.29-1.61,0.59-3.22c1.9-9.8,2.93-21.65,2.49-31.01
		c-0.29-5.56-0.59-9.51-1.02-9.95c-0.59-0.73-9.22-1.32-17.26-1.17c-8.19,0.15-14.92,0.88-22.97,2.34c-1.9,0.29-3.8,0.59-3.95,0.59
		c-0.29,0-0.73-0.44-1.76-2.05c-5.56-8.34-12.43-16.53-19.46-23.11c-2.63-2.49-6.44-5.71-7.61-6.44L256,110.03L256,110.03z
		 M256,115.88c0.73,0,8.63,7.61,12.58,12c4.97,5.71,11.85,14.63,11.7,15.36c0,0.29-0.88,0.59-2.93,1.17
		c-1.61,0.44-2.93,0.73-3.07,0.88c-0.15,0-0.59-0.29-0.88-0.73c-1.02-1.46-4.68-6.14-6.44-8.48c-3.51-4.24-10.24-10.83-10.97-10.83
		c-0.44,0-3.36,2.63-6.29,5.71c-3.66,3.8-8.34,9.36-11.12,13.46c-0.73,1.02-0.73,1.02-3.95,0.15c-2.93-0.88-2.93-0.88-2.93-1.17
		c0-0.29,1.32-2.34,4.24-6.14c5.27-7.02,11.56-13.9,17.7-19.46C254.68,116.76,255.85,115.88,256,115.88z M256,131.24
		c0.29,0,3.8,3.36,6.14,6.14c2.93,3.36,7.17,8.78,7.17,9.36c0,0.15-0.44,0.44-0.88,0.59c-2.49,0.88-8.05,3.22-10.09,4.1
		c-1.32,0.59-2.34,1.02-2.49,1.02c0,0-0.73-0.29-1.46-0.73c-2.19-1.02-6.88-2.93-9.22-3.8c-1.17-0.44-2.19-0.88-2.34-1.02
		c-0.29-0.73,6-8.34,10.53-13.17C254.54,132.27,255.71,131.24,256,131.24z M314.37,143.82c1.02,0,1.9,0,2.93,0
		c6,0.15,8.05,0.29,8.34,0.59c0.29,0.29,0.59,5.27,0.59,10.83c0,27.5-8.48,54.56-23.7,75.78l-1.61,2.19l0.44,3.22
		c0.59,5.12,0.88,8.78,0.73,13.9c-0.15,5.27-0.44,8.78-0.73,9.07c-0.44,0.44-5.12,0.73-10.83,0.73c-5.56,0-8.63-0.15-12.87-0.73
		c-1.76-0.29-2.63-0.29-2.78-0.15c-0.15,0.15-1.17,0.73-2.05,1.46c-2.78,2.05-4.83,3.22-5.27,3.22c-0.29,0-1.32-0.44-2.34-0.88
		c-2.78-1.32-3.95-1.9-3.95-2.05c0-0.29,0-0.29,4.24-2.93c1.9-1.17,4.39-3.07,5.71-3.95c1.46-1.02,2.63-1.76,2.78-1.76
		c0.29,0,1.46,0.15,2.78,0.44c5.27,1.02,12.14,1.61,16.68,1.32c1.61-0.15,2.05-0.15,2.05-0.44c0-0.15,0.15-1.61,0.29-3.36
		c0.15-4.53-0.29-10.09-1.32-15.21c-0.29-1.32-0.44-2.49-0.44-2.78c0-0.15,0.88-1.61,2.05-3.07c6.73-8.92,12.43-19.46,16.24-29.7
		c4.1-10.83,6.44-21.8,7.46-33.21c0.29-3.22,0.29-10.97,0.15-13.6c-0.15-1.61-0.15-1.9-0.59-2.05c-0.59-0.29-11.12-0.44-14.77-0.15
		c-11.85,0.88-23.41,3.51-35.11,7.9l-1.17,0.44l-0.73-0.44c-0.44-0.29-1.76-1.02-2.93-1.61c-2.49-1.46-3.07-1.9-2.78-2.05
		c0.29-0.29,5.85-2.49,9.36-3.66C284.96,146.31,299.89,143.82,314.37,143.82L314.37,143.82z M196.61,143.82
		c4.1,0,8.34,0.15,10.97,0.29c18.14,1.61,33.65,5.85,48.71,13.46c6.14,3.07,11.12,6,18.14,10.97l0.88,0.59l1.76-0.29
		c5.71-0.88,15.21-1.17,20.63-0.73c3.22,0.29,3.66,0.44,3.8,0.73c0.59,1.02,0.88,11.85,0.59,16.68c-0.15,1.61-0.44,4.39-0.59,6.14
		l-0.44,3.22l1.17,1.61c2.19,3.07,3.8,5.71,3.8,6c0,0.15-0.59,1.76-1.32,3.36c-1.02,2.19-1.46,2.93-1.76,2.93
		c-0.15,0-0.59-0.44-1.17-1.32c-1.17-1.9-4.1-6.44-6-8.78c-0.88-1.17-1.76-2.34-1.76-2.34c-0.15-0.15,0.15-1.46,0.44-3.07
		c0.73-3.95,1.17-6.88,1.32-10.68c0.15-3.07,0-7.9-0.29-8.19c-0.15-0.15-2.49-0.15-5.41-0.15c-5.85,0-7.9,0.15-13.17,1.17
		c-1.46,0.29-2.78,0.59-2.93,0.59s-1.32-0.88-2.63-1.9c-20.92-15.65-47.69-24.58-72.7-23.99c-2.63,0-5.12,0.15-5.41,0.29
		c-0.59,0.15-0.73,0.29-0.88,1.02c-0.29,1.46-0.29,12.87,0.15,16.38c1.02,10.53,3.36,20.77,6.73,29.84
		c0.59,1.46,1.02,2.93,1.17,3.36l0.29,0.73l-1.32,2.34c-0.73,1.32-1.61,2.63-1.76,3.22c-0.73,1.32-1.02,1.17-1.76-0.59
		c-5.56-13.46-8.92-27.79-10.09-43.15c-0.29-3.51-0.29-13.9,0-16.97c0.15-1.76,0.29-2.34,0.44-2.49
		C186.66,143.97,191.49,143.82,196.61,143.82L196.61,143.82z M198.51,154.79c0.73,0,1.9,0,3.51,0c11.41,0.29,22.09,2.19,33.21,5.71
		c2.78,0.88,3.51,1.32,3.36,1.61c0,0.15-0.73,0.59-1.61,1.17l-1.46,1.02l-1.61-0.15c-4.24-0.59-6.29-0.73-12.14-0.73
		c-3.8,0-7.02,0.15-8.48,0.29c-2.93,0.29-6.58,0.88-6.73,1.17c-0.29,0.29-0.59,2.19-1.02,5.12c-0.44,3.66-0.44,16.68,0,20.48
		c0.44,3.51,0.44,3.51-0.59,4.97c-0.44,0.73-1.02,1.32-1.17,1.32c-0.15,0-0.29-0.15-0.29-0.29c-0.44-0.88-2.63-7.75-3.51-11.41
		c-2.19-8.78-3.22-16.24-3.36-25.16c-0.15-4.24-0.15-4.53,0.29-4.83C197.05,154.79,197.19,154.79,198.51,154.79z M311.15,154.94
		c2.19,0,3.8,0,3.95,0.15c0.15,0.29,0.15,7.61-0.15,10.53c-0.73,9.8-2.49,18.58-5.56,27.79c-0.59,1.76-1.17,3.22-1.32,3.36
		c-0.15,0.15-0.29,0.15-0.59-0.15c-0.15-0.29-0.73-0.88-1.17-1.61l-0.73-1.17l0.44-3.51c0.59-4.68,0.59-15.95,0.15-20.19
		c-0.44-3.22-0.73-5.12-1.02-5.41c-0.29-0.29-2.78-0.73-6.29-1.02c-4.1-0.44-13.31-0.44-17.55,0c-5.85,0.59-5.12,0.59-6.58-0.44
		c-0.73-0.59-1.32-1.02-1.32-1.32s0.59-0.59,2.34-1.17c9.07-3.07,19.16-5.12,28.82-5.85C306.47,154.94,308.96,154.94,311.15,154.94
		L311.15,154.94z M244.3,164.16c0.59,0,6.44,2.78,6.58,3.07c0,0.15-0.73,0.73-1.76,1.46c-3.07,1.9-5.85,3.8-8.48,5.85
		c-1.46,1.17-2.63,1.9-2.93,1.9c-0.29,0-1.76-0.29-3.22-0.59c-4.68-0.88-7.75-1.17-12.87-1.17c-2.93,0-4.68,0.15-5.12,0.15
		c-0.44,0.15-0.44,0.29-0.59,2.19c-0.29,4.39,0.29,11.41,1.32,16.68c0.29,1.32,0.44,2.49,0.44,2.63c0,0.15-0.73,1.32-1.76,2.63
		c-7.17,9.51-13.02,20.63-17.12,32.04c-3.51,9.95-5.85,21.07-6.73,31.89c-0.15,2.63-0.29,12,0,13.9l0.15,1.17l1.17,0.15
		c2.05,0.29,8.78,0.29,11.7,0.15c12.14-0.73,24.28-3.22,35.99-7.61l2.78-1.02l3.07,1.76c1.61,0.88,3.07,1.76,3.22,1.9
		c0.29,0.29-0.29,0.59-3.36,1.9c-17.85,7.02-37.74,10.39-56.61,9.36c-1.76-0.15-3.36-0.29-3.66-0.29c-0.59-0.29-0.59-0.59-0.73-8.19
		c-0.15-10.24,0.59-18.87,2.63-28.96c3.66-18.58,11.12-35.84,21.5-50.32l1.17-1.46l-0.29-2.05c-0.44-3.22-0.73-5.27-0.88-9.36
		c-0.29-5.71,0.29-14.63,0.88-15.07c0.59-0.44,4.83-0.73,11.26-0.73c6.44,0,7.31,0,13.31,0.88l1.76,0.29l1.32-0.88
		C240.35,166.35,244,164.16,244.3,164.16L244.3,164.16z M256,169.86c0.29,0,4.39,2.49,7.61,4.53c2.78,1.9,4.53,3.22,7.31,5.41
		c1.9,1.46,1.46,1.46,5.12,0.59c3.07-0.73,8.19-1.46,11.56-1.61c3.36-0.15,3.66-0.15,3.66,0.29c0,0.15,0,1.61-0.15,3.36
		c-0.15,4.39-0.59,7.02-1.9,13.46l-0.29,1.46l1.32,1.61c1.76,2.34,3.66,4.83,5.27,7.31c1.9,2.93,4.68,7.46,4.68,7.75
		c0,0.29-2.19,3.95-4.1,6.88c-1.9,2.93-3.66,5.27-5.71,7.9l-1.61,2.19l0.59,2.49c1.02,4.24,1.61,8.34,1.9,13.02
		c0.15,1.9,0.15,2.63-0.15,2.78c-0.59,0.73-9.51-0.15-15.65-1.46l-2.93-0.59l-1.61,1.32c-2.63,2.05-5.12,3.95-7.75,5.71
		c-2.93,1.9-6.73,4.24-7.02,4.24c-0.15,0-0.44-0.15-0.59-0.15c-3.95-2.19-10.68-6.73-14.48-9.8c-0.88-0.73-1.61-1.17-1.9-1.17
		c-0.15,0-1.02,0.15-1.76,0.29c-1.9,0.44-6,1.17-8.34,1.46c-2.78,0.29-7.61,0.59-8.05,0.29c-0.29-0.15-0.29-0.44-0.29-2.34
		c0-3.66,0.59-8.63,1.76-13.31c0.29-1.32,0.59-2.49,0.59-2.78s-0.59-1.17-1.46-2.05c-3.36-4.24-9.8-13.9-9.8-14.77
		c0-0.29,2.49-4.53,4.53-7.61c1.76-2.49,3.95-5.56,5.85-8.05l0.73-1.02l-0.29-1.46c-1.02-4.24-1.76-9.36-2.05-13.75
		c-0.15-2.19-0.15-2.93,0.15-3.22c0.59-0.73,9.51,0.15,15.65,1.46l2.93,0.73l1.02-0.73c2.34-1.9,5.56-4.24,8.19-6
		C251.61,172.35,255.71,169.86,256,169.86L256,169.86z M185.05,189.9c0.15,0,0.29,0.29,0.44,0.73c0.15,0.44,0.44,1.76,0.88,2.93
		c0.29,1.17,0.59,2.34,0.59,2.34c0,0.15-1.02,0.88-2.34,1.76c-2.63,1.9-6,4.53-8.34,6.58c-2.34,2.05-7.31,7.02-8.48,8.48l-1.17,1.32
		l0.88,1.17c1.17,1.61,5.71,6,8.34,8.34c2.78,2.49,6.73,5.56,9.07,7.17c1.02,0.73,1.9,1.46,1.9,1.61c0.15,0.44-1.32,5.71-1.61,6
		c-0.15,0.15-0.59,0-1.76-0.88c-5.56-3.8-12.58-9.51-17.85-14.77c-3.8-3.8-7.9-8.19-7.9-8.63c0-0.88,8.92-9.95,13.9-14.19
		C176.57,195.61,184.32,189.9,185.05,189.9L185.05,189.9z M326.8,189.9c0.29,0,4.97,3.22,8.34,5.85c5.27,4.1,11.56,9.8,15.51,14.19
		c3.22,3.51,3.51,3.95,3.51,4.24c0,0.44-2.63,3.36-6.73,7.46c-5.41,5.41-10.68,9.8-17.12,14.48c-3.07,2.19-3.51,2.49-3.8,2.34
		c-0.15-0.15-1.46-4.53-1.76-5.71c-0.15-0.44,0-0.59,0.88-1.17c6.88-4.83,13.17-10.39,17.26-14.77c1.02-1.17,1.9-2.19,2.05-2.34
		c0.15-0.44-0.59-1.32-3.8-4.68c-4.1-4.24-9.22-8.48-14.04-11.85c-1.17-0.88-2.34-1.76-2.34-1.76c0-0.15,0.15-1.17,0.59-2.49
		c0.29-1.17,0.73-2.49,0.88-2.93C326.36,190.19,326.51,189.9,326.8,189.9L326.8,189.9z M188.27,201.02c0.29,0,0.59,0.44,0.88,1.61
		c0.73,2.05,2.63,6.58,3.66,8.92c0.59,1.32,1.02,2.49,1.02,2.63c0,0.15-0.59,1.76-1.32,3.22c-1.17,2.49-1.76,4.1-3.66,9.22
		c-0.15,0.44-0.44,0.73-0.59,0.73c-0.15,0-1.32-0.73-2.63-1.61c-5.12-3.8-12.87-10.83-12.87-11.56c0-0.88,9.65-9.51,14.34-12.58
		C187.83,201.17,188.12,201.02,188.27,201.02z M323.44,201.02c0.29,0,0.73,0.29,1.61,0.88c5.85,4.24,14.04,11.41,14.04,12.29
		c0,0.73-7.31,7.31-12.43,11.26c-2.93,2.19-3.22,2.34-3.36,2.05c-0.15-0.15-0.59-1.32-1.02-2.63c-0.44-1.32-1.61-4.1-2.49-6.14
		s-1.61-3.95-1.61-4.24c-0.15-0.44,0.15-1.17,1.02-2.93c1.02-2.19,2.78-6.58,3.8-9.22C322.85,201.46,323.15,201.02,323.44,201.02
		L323.44,201.02z M209.04,219.45c0.15,0,0.59,0.44,1.02,1.17c1.46,2.34,3.95,6,6,8.63l2.05,2.63l-0.59,2.93
		c-1.02,5.41-1.17,7.31-1.17,13.17c0,4.24,0,5.41,0.29,5.56c0.15,0.15,1.46,0.29,5.71,0.29c6,0,7.75-0.15,13.17-1.32l2.78-0.59
		l2.63,1.9c9.22,6.88,20.04,12.73,31.01,16.68c9.65,3.51,20.04,5.85,30.57,6.88c3.51,0.29,13.46,0.44,15.8,0.15
		c1.17-0.15,1.32-0.15,1.32-0.59c0.29-1.02,0.29-10.09,0.15-13.17c-0.59-8.19-1.9-16.24-3.95-23.84c-0.88-3.22-2.78-9.36-3.8-11.85
		c-0.29-0.88-0.59-1.76-0.59-1.9c0-0.29,3.36-6.14,3.51-6.29c0.29-0.15,0.59,0.15,1.61,3.07c5.27,13.17,8.48,27.94,9.51,43.01
		c0.29,5.85,0.15,17.41-0.44,17.99c-0.44,0.44-11.41,0.73-16.68,0.44c-9.51-0.59-18.43-1.9-27.5-4.24
		c-15.51-3.95-29.26-10.24-41.98-19.02l-2.63-1.9l-3.36,0.44c-6.44,0.73-11.7,0.88-17.26,0.59c-3.36-0.29-5.56-0.44-5.85-0.73
		c-0.59-0.44-1.02-9.51-0.88-15.07c0.15-3.8,0.59-7.75,0.88-9.95l0.15-1.17l-0.73-1.17c-2.78-3.95-4.1-6-4.1-6.29
		c0-0.15,0.59-1.76,1.46-3.36C208.31,220.33,208.9,219.45,209.04,219.45L209.04,219.45z M308.08,231.59L308.08,231.59
		c0.44,0,0.73,1.02,2.05,5.27c3.22,10.24,4.97,20.92,5.27,31.6c0.15,4.24,0.15,4.53-0.15,4.97c-0.29,0.29-0.73,0.29-3.22,0.29
		c-1.61,0-3.36,0-3.95-0.15c-10.53-0.59-20.77-2.49-30.28-5.56c-3.51-1.17-4.24-1.46-4.24-1.76c0-0.15,0.59-0.73,1.32-1.17
		l1.32-1.02l1.17,0.15c0.73,0,2.63,0.29,4.24,0.44c1.61,0.15,4.39,0.29,6.29,0.44c6.73,0.29,17.12-0.73,17.55-1.61
		c0.29-0.44,0.88-5.12,1.17-8.19c0.44-5.41,0.15-12.87-0.44-18.29l-0.29-2.34l1.02-1.46C307.35,232.03,307.79,231.59,308.08,231.59
		L308.08,231.59z M203.78,231.74c0.44,0,2.05,2.34,2.05,3.07c0,0.29-0.15,1.76-0.29,3.07c-0.44,3.22-0.44,16.68-0.15,19.75
		c0.29,2.63,0.73,5.41,1.02,5.71c0.29,0.73,6.58,1.46,13.17,1.61c4.68,0.15,8.92-0.15,13.46-0.59l2.49-0.29l1.32,0.88
		c1.76,1.17,1.9,1.32,1.32,1.76c-0.15,0.15-1.46,0.59-2.93,1.02c-10.68,3.51-20.77,5.41-31.89,5.85c-4.1,0.15-5.27,0.15-6.29,0
		l-0.59-0.15v-4.97c0-10.39,2.05-21.94,5.56-33.06C203.19,232.47,203.48,231.74,203.78,231.74z M255.85,276.06
		c0.15,0,1.76,0.73,3.8,1.61s4.83,2.05,6.29,2.49c3.07,1.17,3.22,1.17,3.22,1.61c0,0.29-3.07,4.53-5.85,7.9
		c-2.63,3.07-6.88,7.61-7.31,7.61c-0.15,0-1.17-0.88-2.34-2.05c-2.19-2.19-4.24-4.53-6.14-6.88c-2.19-2.78-4.83-6.29-4.83-6.73
		c0-0.15,0.29-0.44,0.88-0.59c2.63-1.02,7.17-2.78,9.51-3.8C254.54,276.5,255.71,276.06,255.85,276.06L255.85,276.06z
		 M274.29,283.09c0.29,0,1.17,0.15,2.05,0.44c1.02,0.29,2.34,0.73,2.93,0.88c0.73,0.15,1.02,0.29,1.02,0.59
		c0,0.73-6,8.63-10.39,13.75c-4.24,4.97-13.17,13.6-13.9,13.6c-0.15,0-1.17-0.73-2.34-1.76c-6-5.41-12.14-12-17.41-19.16
		c-2.93-3.95-4.68-6.44-4.53-6.73c0.15-0.44,5.85-2.05,6.29-1.76c0.15,0.15,0.73,0.88,1.32,1.76c1.46,2.19,3.95,5.27,6,7.75
		c3.07,3.66,10.09,10.68,10.68,10.68c0.29,0,2.93-2.34,5.27-4.68c3.8-3.8,7.61-8.34,11.12-13.31
		C273.26,284.11,273.99,283.09,274.29,283.09C274.14,283.09,274.14,283.09,274.29,283.09L274.29,283.09z"/>
</g>
</svg>
